# xmcd
#
# Track frame offsets: 
#        150
#        17762
#        34828
#        47313
#        61589
#        87694
#        105182
#        119014
#        139837
#        150982
#        164159
#
# Disc length: 2466 seconds
#
# Revision: 0
# Processed by: cddbd v1.5.2PL0 Copyright (c) Steve Scherf et al.
# Submitted via: ExactAudioCopy v0.99pb4
#
DISCID=8709a00b
DTITLE=The Tractors - The Tractors
DYEAR=1994
DGENRE=Country Rock
TTITLE0=The Tulsa Shuffle
TTITLE1=Fallin' Apart
TTITLE2=Thirty Days
TTITLE3=I've Had Enough
TTITLE4=The Little Man
TTITLE5=Baby Likes To Rock It
TTITLE6=Badly Bent
TTITLE7=The Blue Collar Rock
TTITLE8=Doreen
TTITLE9=Settin' the Woods On Fire
TTITLE10=Tryin' To Get To New Orleans
EXTD=
EXTT0=
EXTT1=
EXTT2=
EXTT3=
EXTT4=
EXTT5=
EXTT6=
EXTT7=
EXTT8=
EXTT9=
EXTT10=
PLAYORDER=
